<svg id="Capa_1" data-name="Capa 1" xmlns="http://www.w3.org/2000/svg" viewBox="0 0 477.2 379.4"><defs><style>.cls-1{fill:#040405;}.cls-2{fill:#009fe3;}.cls-3{fill:#91d2e4;}.cls-4{fill:#5a7ebf;}.cls-5{fill:#050506;}</style></defs><title>Logo</title><path class="cls-1" d="M391.7,286.9c9-4.1,17.9-8.3,26.9-12.2a388.7,388.7,0,0,1,76.5-23.5c12-2.4,24-4.6,36.1-5.3,2.2-.2,4.2-.1,5.1,2.2s-.4,3.8-2.2,5.1c-13.5,9.3-24.9,20.8-35.9,32.8-14.7,16.1-24.4,34.8-31.9,55a143.8,143.8,0,0,0-6.3,24c-.4,1.9-1.1,3.5-3.2,4.2-26,9.5-42.2,28.6-54.3,52.7-6.9,13.8-10.3,28.4-13.4,43.2-.8,3.7-2.7,6.6-6.6,6.7-16.6.4-31.1,6.4-44.6,16.2a7.8,7.8,0,0,0,3.4,0c26-1.2,50.5,3.3,72.6,17.7,6.2,4,11.3,9.3,16.6,14.3a76.8,76.8,0,0,0,9.3,7.8c8.8,5.9,18.4,6.1,28,2.6,11.8-4.4,20.4,3.8,21.9,13.7.3,1.8-.1,3.7.1,5.6,1.1,10.3,9.2,13.6,17.2,16.7a15.8,15.8,0,0,0,7.2,1.1c4.3-.3,7.4,4.7,4.6,8.9-6.9,10.3-15.6,14.1-28.8,11.1-2.9-.7-4.6-.1-6.8,1.8-10.5,9.4-28.4,6.3-36.1-6.9-3.5-6-5.9-9.1-13.6-7.1s-15.5-1-23.1-3.3a35.4,35.4,0,0,0-23.8.6,169.6,169.6,0,0,1-38,9.7c-24.5,3.4-47.9.2-70.4-10.3-7.7-3.6-15-7.6-22.3-11.7-14-7.8-27.8-15.8-41.9-23.3a207.5,207.5,0,0,0-24-10.9c-12.3-4.7-24.2-2.2-36.1,1.7-22.8,7.5-42.7,19.7-58.8,37.7-3.7,4.1-7.7,7.9-13.2,10s-11.7,3.3-16.8-1-6.3-10.5-5.3-17.1c2.6-16.5,10-31.1,19.4-44.7s21.2-29.1,34.5-41.4c9.8-9.1,19.7-18.2,30.9-25.7,19.4-12.8,39.9-23.3,63-27.8,7.8-1.6,15.8-2.2,23.8-.5,4.8,1,8.7,3.7,12.6,6.3s2.3,5.2-1.4,7.5c-13.8,8.5-24.2,19.8-27.7,36-2.2,10.4,0,19.8,8.7,26.8,5.4,4.5,8.4,4.3,13.9.1,15.7-11.5,23.2-27.9,26.6-46.3,4.6-24.9.9-49.4-5.2-73.6-2.1-8.2-4.6-16.4-7.1-24.5a8.4,8.4,0,0,1-.3-5.2,123,123,0,0,1,22-43.6c8.5-10.6,17.2-21.3,27.7-30.1,22.2-18.6,46.6-33.3,73.8-43.4,11.2-4.2,22.6-8.1,34.1-11.3,2.4-.7,5.1-1.5,6.5,1.3s-.5,4.4-2.4,6.1a25.9,25.9,0,0,0-3.8,4.8c-8.5,11.9-15.7,24.5-17.6,39.4A73.3,73.3,0,0,0,391.7,286.9Z" transform="translate(-59.5 -215.3)"/><path class="cls-2" d="M510.3,575c-3.4,4.6-7.5,5.9-12.7,5.8-14-.3-27.7-9.4-31.5-21.1-.6-1.9-.7-3.8-1.8-5.7-2.3-3.6-4.7-4.3-7-.9s-2.7,1.5-4.2,1.5c-20.3.5-40.3,2.8-59.9,8.1-11.4,3.1-22.4,7.5-33.9,10-28.3,6-55.4,3.9-81.6-9.4-9.8-5-19-10.9-28.8-15.8-11.9-6.1-23.1-13.3-34.9-19.3-5.8-2.9-11.9-5.3-17.8-8-15-6.7-29.9-4.8-44.8.3-23.9,8-45,20.5-61.9,39.7a33.4,33.4,0,0,1-11.3,8.4c-6.5,3.1-11.1-.1-10.8-7.2a54.2,54.2,0,0,1,3.2-15.5c5.3-16.1,15.5-29.3,25.3-42.8,13.7-18.6,30.4-34.4,49-47.9s41-25.5,65.2-30.1c8.2-1.5,16.3-2.5,24.7,1.7-7,5.2-13.3,10.8-18.1,17.7s-10.1,16.2-11,26.1c-1.6,16.5,9.2,31.8,24.2,34.3,12.7,2.1,25.2-1.6,35.5-10.6,14.4-12.5,20.6-29.1,24-47.2,2.8-14.3,3.3-28.8,4.2-43.3.8-11.3,1.7-22.7,4-33.8.8-4.2,4.2-6.6,6.9-9.3,7.1-7.1,14.4-14,21.9-20.6a324,324,0,0,1,40.2-29.8A394.1,394.1,0,0,1,420.9,282a2.5,2.5,0,0,1,2.1-.1c-7.5,4.3-15,8.6-22.4,13.1-9.3,5.6-18,12.1-27.1,18.1C362,320.8,351.6,330,340.3,338a113.8,113.8,0,0,0-25.9,25c-6.6,8.9-9.7,18.8-10.4,30-1,18.2-.9,36.6-3.8,54.8S291,484.6,278,499.3c-2.8,3.2-2.3,5.7,1.7,7.3,7.2,3,14.9,3.6,22.5,5.4s15.7,1,19.8-8.4c2.8-6.5,8.8-7.5,15.2-7.8,19.7-1.1,38.9.5,57.4,8.3,12.3,5,22.3,12.8,31.2,22.3a43.5,43.5,0,0,0,26.4,13.8c6,.8,11.7-.5,17.3-2.2,8-2.5,12.4.8,12.6,9.3.3,11,5.5,18.7,15.5,23.3A65.3,65.3,0,0,0,510.3,575Z" transform="translate(-59.5 -215.3)"/><path class="cls-3" d="M286.4,501.1c9.3-11.6,14.3-24.5,18.5-37.9,5.3-17,5.8-34.5,6.6-52,.4-9.7.8-19.5,2.3-29.2.7-5.3,3.4-9.6,6.2-13.9,7.5-11.2,18.2-18.8,28.6-26.9,15.8-12.4,32-24.3,48.9-35.1,19.4-12.4,39.5-23.7,60-34.3,7.1-3.6,15-5.2,22.3-8.3,11.6-5,23.9-5.6,35.8-8.3a6.5,6.5,0,0,1,2-.2l1.1.4c-8.4,6.4-15.1,14.2-22.6,21.1-5.5,5.1-9.8,11.3-14.1,17.4-5.7,8.2-10.2,16.9-15.1,25.6-6.6,11.8-10.4,24.4-13,37.5-.5,2.5-1.3,3.3-3.9,3.2-28.8-1.2-57.6-1.4-86.4.1-6.5.3-12.9,1.1-19.4,1.7-2.7.3-5.1,1.3-4.5,4.5s2.6,3.3,5.5,3c15-1.6,30-2.6,45.1-2.7s32.6-.3,48.9.5l1.8.2c-34.8,21.3-51.5,53.8-58.7,92.2-1.5.2-1.9-1.1-2.6-1.8-12.5-12.1-25.2-23.9-38.3-35.3-5.2-4.5-10.6-8.7-15.9-13.2-2.1-1.9-4.4-2.7-6.3-.3s-.6,4.3,1.4,6c13.6,12,28,23.2,40.8,36,4.4,4.4,9,8.6,14,13.3-4,.8-7.7,1.3-11.2,2.3-20.9,5.9-38.1,17.2-50.5,35.4-1.6,2.3-3,3.2-6.2,2.9C300.6,504.2,294,502.4,286.4,501.1Z" transform="translate(-59.5 -215.3)"/><path class="cls-4" d="M399.5,226.5c-3.8,7.3-7.6,14.5-10.4,22.2-4.7,12.6-7,25.6-4.9,39.1.4,2.8-.3,4.2-2.8,5.4-17.2,8.6-32.5,20-47.9,31.3a208.1,208.1,0,0,0-18.8,16.2C307.9,347,301,353,294.8,360a22.1,22.1,0,0,0-5.3,11.5c-2.4,14.7-3,29.6-4.1,44.5-1.2,16.7-2.1,33.7-9.1,49.3-5.3,11.7-11.9,22.9-24.4,28.8-.6.3-1.1.9-2.2.3,2.9-3.8,6.2-7.3,8.8-11.4,9-14,13.4-29.4,14.8-46,2.3-28.5-3.8-55.8-12.1-82.7-1.9-6-2.1-11.4.5-17.2,3.3-7.6,6.4-15.4,11.2-22.1,9.7-13.4,19.6-26.7,32.2-37.6,24.8-21.6,53.1-36.9,84.1-47.4Z" transform="translate(-59.5 -215.3)"/><path class="cls-4" d="M478.3,583.6c-7.2,5.7-17.6,4.2-23.7-3.2-2.7-3.2-4.2-7-5.5-10.9s-3.1-5.7-8.1-3.6c-7.5,3.2-15.1,2.2-22.7.3-.3-.1-.5-.5-1-.9a233.7,233.7,0,0,1,38.1-2.9c1.4,0,2.9-.3,3.5,1.4C462.3,573.2,470.3,578.2,478.3,583.6Z" transform="translate(-59.5 -215.3)"/><path class="cls-5" d="M160.5,471.7c0-5.6,4.2-9.6,9.9-9.5s10.5,4.9,10.5,9.7-5.6,10-10.9,9.8A9.6,9.6,0,0,1,160.5,471.7Z" transform="translate(-59.5 -215.3)"/></svg>